# xmcd
#
# Track frame offsets:
#	150
#	20922
#	42387
#	58575
#	74557
#	101872
#	117287
#	136292
#	155380
#	174175
#	193005
#	212550
#	231850
#	244570
#	260155
#
# Disc length: 3756 seconds
#
# Revision: 1
# Processed by: cddbd v1.5.1PL2 Copyright (c) Steve Scherf et al.
# Submitted via: audiograbber 1.83.01
#
DISCID=dc0eaa0f
DTITLE=Various Artist - SC8652
DYEAR=1900
DGENRE=Karaoke
TTITLE0=Carolyn Dawn Johnson - Georgia
TTITLE1=Faith Hill - There Will Come A Day
TTITLE2=Tamara Walker - Didn't We Love
TTITLE3=Tammy Cochran - So What
TTITLE4=Patty Loveless - Strong Heart
TTITLE5=Loretta Lynn - Country In My Genes
TTITLE6=Sonya Isaacs - Barefoot In The Grass
TTITLE7=Keith Urban - But For The Grace Of God (Radio Version)
TTITLE8=John Anderson - Nobody's Got It All
TTITLE9=Bryan White - How Long
TTITLE10=George Strait - Go On
TTITLE11=Billy Gilman - Oklahoma
TTITLE12=Alan Jackson - WWW.Memory
TTITLE13=Darryl Worley - A Good Day To Run
TTITLE14=Shedaisy - Lucky 4 You (Tonight I'm Just Me)
EXTD=
EXTT0=
EXTT1=
EXTT2=
EXTT3=
EXTT4=
EXTT5=
EXTT6=
EXTT7=
EXTT8=
EXTT9=
EXTT10=
EXTT11=
EXTT12=
EXTT13=
EXTT14=
PLAYORDER=
